<svg xmlns="http://www.w3.org/2000/svg" viewBox="0 0 137 137"><defs><style>.a{fill:#4f91fd;}.b{fill:#316cfe;}.c{fill:#f6cf9f;}.d{fill:#262647;}.e{fill:#fcfdfe;}.f{fill:#f5be90;}</style></defs><title>CHAT-USER</title><circle class="a" cx="68.5" cy="68.5" r="68.5"/><path class="b" d="M927,591c4.51-10.43,12.63-16.7,23.22-20.11a8.14,8.14,0,0,1,0,1.48c-.82,5.48.86,9.82,5.73,12.71,4.34,2.57,8.61,2,12.44-.87,4.48-3.38,5.59-8,3.92-13.34l.27.06h.27c10.6,3.38,18.69,9.65,23.2,20.07-2.57,2.44-5.84,3.69-8.88,5.34-5.09,2.76-11,3.12-16.15,5.62H951c-1.15-1.79-3.19-1.46-4.84-2C939.28,598.05,932.62,595.64,927,591Z" transform="translate(-893.08 -481.48)"/><path class="c" d="M985,550c-.37,9.13-4.83,15.89-12.16,21h-.27l-.27-.06-2.9,1.13a29.26,29.26,0,0,1-15.78,0l-2.77-1.35c-8.54-4.26-12.11-11.6-12.83-20.71-.33-3.64.8-7.39-.84-10.93,1.08-2.4,1.11-5,1.21-7.66,17.81,8.74,25.46,7.2,36.19-7.19,4.63,4.07,11.71,6.29,10.51,14.59Zm-16.8,9.27c-4.52,5.2-8.92,4-13.54.29,1.31,3.45,3.91,5.05,6.79,5A6.64,6.64,0,0,0,968.19,559.25Zm-16.93-13.18a2.54,2.54,0,0,0,2.35-2.94,2.38,2.38,0,0,0-2.58-2.4c-1.68,0-2.92.89-2.91,2.66S949.31,546,951.26,546.07Zm20.67-5.38a2.58,2.58,0,0,0-2.6,2.93A2.46,2.46,0,0,0,972,546c1.75,0,2.89-.89,2.91-2.64S973.62,540.86,971.93,540.69Z" transform="translate(-893.08 -481.48)"/><path class="d" d="M985.08,538.79c1.2-8.3-5.88-10.52-10.51-14.59-10.73,14.39-18.38,15.93-36.19,7.19-.1,2.66-.13,5.26-1.21,7.66l-2.23.51c-.07-4-.22-8-.21-11.94,0-16.3,13.13-27.52,29.2-25.14a30.29,30.29,0,0,0,6.44.42c4.17-.29,8.67-1.37,6.92,5.6a2.09,2.09,0,0,0,.87,1.64c10.71,7.32,10.84,18.18,9.9,29.42Z" transform="translate(-893.08 -481.48)"/><path class="e" d="M950.84,570.69l2.77,1.35a38.16,38.16,0,0,0,.35,4.43,7.69,7.69,0,0,0,15.08,0,34.22,34.22,0,0,0,.35-4.43l2.9-1.13c1.67,5.33.56,10-3.92,13.34-3.83,2.9-8.1,3.44-12.44.87-4.87-2.89-6.55-7.23-5.73-12.71a8.14,8.14,0,0,0,0-1.48A2.54,2.54,0,0,0,950.84,570.69Z" transform="translate(-893.08 -481.48)"/><path class="f" d="M934.94,539.56l2.23-.51c1.64,3.54.51,7.29.84,10.93C932.19,547.88,931.34,545,934.94,539.56Z" transform="translate(-893.08 -481.48)"/><path class="f" d="M985.08,538.79l3,.77c3.6,5.45,2.75,8.33-3.07,10.42Z" transform="translate(-893.08 -481.48)"/><path class="f" d="M969.39,572a34.22,34.22,0,0,1-.35,4.43,7.69,7.69,0,0,1-15.08,0,38.16,38.16,0,0,1-.35-4.43A29.26,29.26,0,0,0,969.39,572Z" transform="translate(-893.08 -481.48)"/><path class="f" d="M968.19,559.25a6.64,6.64,0,0,1-6.75,5.33c-2.88,0-5.48-1.59-6.79-5C959.27,563.2,963.67,564.45,968.19,559.25Z" transform="translate(-893.08 -481.48)"/><path class="d" d="M951.26,546.07c-2-.09-3.12-.93-3.14-2.68s1.23-2.61,2.91-2.66a2.38,2.38,0,0,1,2.58,2.4A2.54,2.54,0,0,1,951.26,546.07Z" transform="translate(-893.08 -481.48)"/><path class="d" d="M971.93,540.69c1.69.17,3,.91,2.94,2.7S973.71,546,972,546a2.46,2.46,0,0,1-2.63-2.41A2.58,2.58,0,0,1,971.93,540.69Z" transform="translate(-893.08 -481.48)"/></svg>